<svg width="415" height="48" viewBox="0 0 415 48" fill="none" xmlns="http://www.w3.org/2000/svg">
<g clip-path="url(#clip0_83_82)">
<path d="M3.648 40V7.984H9.888V34.624H22.56V7.984H28.8V34.624H32.64V47.2H26.88V40H3.648ZM35.9246 19.216H41.7806V32.032L51.3806 19.216H57.2366V40H51.3806V27.184L41.7806 40H35.9246V19.216ZM73.632 50.992V40.288H73.152C70.208 40.288 67.776 39.6 65.856 38.224C63.104 36.304 61.728 33.424 61.728 29.584C61.728 25.808 63.104 22.928 65.856 20.944C67.776 19.6 70.208 18.928 73.152 18.928H73.632V7.984H79.488V18.928H79.968C82.912 18.928 85.344 19.6 87.264 20.944C90.016 22.928 91.392 25.808 91.392 29.584C91.392 33.424 90.016 36.304 87.264 38.224C85.344 39.6 82.912 40.288 79.968 40.288H79.488V50.992H73.632ZM73.632 35.104V24.112C72.192 24.048 70.96 24.368 69.936 25.072C68.496 26.064 67.776 27.568 67.776 29.584C67.776 31.664 68.48 33.168 69.888 34.096C70.848 34.768 72.096 35.104 73.632 35.104ZM79.488 24.112V35.104C81.024 35.104 82.272 34.768 83.232 34.096C84.64 33.168 85.344 31.664 85.344 29.584C85.344 27.568 84.624 26.064 83.184 25.072C82.16 24.368 80.928 24.048 79.488 24.112ZM101.781 37.312V50.992H95.9246V19.216H101.781V21.904C103.349 19.664 105.605 18.544 108.549 18.544C111.429 18.544 113.797 19.472 115.653 21.328C117.733 23.408 118.773 26.16 118.773 29.584C118.773 33.104 117.685 35.904 115.509 37.984C113.589 39.776 111.237 40.672 108.453 40.672C105.669 40.672 103.445 39.552 101.781 37.312ZM106.965 23.728C105.461 23.728 104.197 24.192 103.173 25.12C101.861 26.24 101.205 27.728 101.205 29.584C101.205 31.472 101.845 32.976 103.125 34.096C104.181 35.024 105.461 35.488 106.965 35.488C108.533 35.488 109.845 34.992 110.901 34C112.117 32.88 112.725 31.408 112.725 29.584C112.725 27.792 112.133 26.336 110.949 25.216C109.861 24.224 108.533 23.728 106.965 23.728ZM125.748 21.472C127.86 19.52 130.66 18.544 134.148 18.544C137.636 18.544 140.436 19.52 142.548 21.472C144.884 23.584 146.052 26.304 146.052 29.632C146.052 32.928 144.884 35.632 142.548 37.744C140.436 39.696 137.636 40.672 134.148 40.672C130.66 40.672 127.86 39.696 125.748 37.744C123.412 35.632 122.244 32.928 122.244 29.632C122.244 26.304 123.412 23.584 125.748 21.472ZM129.972 33.76C131.092 34.912 132.484 35.488 134.148 35.488C135.812 35.488 137.204 34.912 138.324 33.76C139.444 32.608 140.004 31.232 140.004 29.632C140.004 28 139.444 26.608 138.324 25.456C137.204 24.304 135.812 23.728 134.148 23.728C132.484 23.728 131.092 24.304 129.972 25.456C128.852 26.608 128.292 28 128.292 29.632C128.292 31.232 128.852 32.608 129.972 33.76ZM150.581 19.216H159.749C161.957 19.216 163.605 19.632 164.693 20.464C166.037 21.488 166.709 22.848 166.709 24.544C166.709 25.44 166.453 26.288 165.941 27.088C165.461 27.856 164.757 28.432 163.829 28.816C164.853 29.008 165.765 29.456 166.565 30.16C167.621 31.12 168.149 32.416 168.149 34.048C168.149 36 167.413 37.536 165.941 38.656C164.725 39.552 163.173 40 161.285 40H150.581V19.216ZM156.437 27.472H159.125C159.733 27.472 160.245 27.344 160.661 27.088C161.173 26.768 161.429 26.288 161.429 25.648C161.429 24.976 161.205 24.48 160.757 24.16C160.437 23.936 159.861 23.824 159.029 23.824H156.437V27.472ZM156.437 35.392H159.173C160.165 35.392 160.885 35.216 161.333 34.864C161.845 34.48 162.101 33.92 162.101 33.184C162.101 32.512 161.845 32.016 161.333 31.696C160.885 31.376 160.213 31.216 159.317 31.216H156.437V35.392ZM174.92 21.472C177.032 19.52 179.832 18.544 183.32 18.544C186.808 18.544 189.608 19.52 191.72 21.472C194.056 23.584 195.224 26.304 195.224 29.632C195.224 32.928 194.056 35.632 191.72 37.744C189.608 39.696 186.808 40.672 183.32 40.672C179.832 40.672 177.032 39.696 174.92 37.744C172.584 35.632 171.416 32.928 171.416 29.632C171.416 26.304 172.584 23.584 174.92 21.472ZM179.144 33.76C180.264 34.912 181.656 35.488 183.32 35.488C184.984 35.488 186.376 34.912 187.496 33.76C188.616 32.608 189.176 31.232 189.176 29.632C189.176 28 188.616 26.608 187.496 25.456C186.376 24.304 184.984 23.728 183.32 23.728C181.656 23.728 180.264 24.304 179.144 25.456C178.024 26.608 177.464 28 177.464 29.632C177.464 31.232 178.024 32.608 179.144 33.76ZM199.753 19.216H205.609V32.032L215.209 19.216H221.065V40H215.209V27.184L205.609 40H199.753V19.216ZM214.441 8.8L218.281 10.624C217.641 12.416 216.569 13.696 215.065 14.464C213.561 15.2 212.009 15.568 210.409 15.568C208.809 15.568 207.257 15.2 205.753 14.464C204.249 13.696 203.177 12.416 202.537 10.624L206.377 8.8C206.569 9.664 207.033 10.384 207.769 10.96C208.537 11.536 209.417 11.824 210.409 11.824C211.337 11.824 212.185 11.568 212.953 11.056C213.721 10.544 214.217 9.792 214.441 8.8ZM253.463 19.792V25.552C252.151 24.336 250.551 23.728 248.663 23.728C246.807 23.728 245.367 24.304 244.343 25.456C243.319 26.576 242.807 27.952 242.807 29.584C242.807 31.28 243.367 32.688 244.487 33.808C245.639 34.928 247.095 35.488 248.855 35.488C250.583 35.488 252.119 34.88 253.463 33.664V39.376C251.735 40.24 249.943 40.672 248.087 40.672C244.855 40.672 242.183 39.664 240.071 37.648C237.863 35.568 236.759 32.912 236.759 29.68C236.759 26.16 237.959 23.344 240.359 21.232C242.375 19.44 244.871 18.544 247.847 18.544C249.863 18.544 251.735 18.96 253.463 19.792ZM276.872 19.216V40H271.016V24.208H265.352V31.84C265.352 34.528 264.696 36.576 263.384 37.984C262.072 39.456 260.2 40.192 257.768 40.192C257.128 40.192 256.552 40.128 256.04 40V35.008C256.424 35.072 256.728 35.104 256.952 35.104C258.008 35.104 258.808 34.768 259.352 34.096C259.832 33.52 260.072 32.64 260.072 31.456V19.216H276.872ZM297.464 33.328L302.84 34.192C302.616 34.768 302.312 35.344 301.928 35.92C301.576 36.464 301.016 37.152 300.248 37.984C299.48 38.784 298.44 39.44 297.128 39.952C295.816 40.432 294.312 40.672 292.616 40.672C289.352 40.672 286.696 39.696 284.648 37.744C282.472 35.696 281.384 32.992 281.384 29.632C281.384 26.304 282.44 23.584 284.552 21.472C286.536 19.52 289.144 18.544 292.376 18.544C295.896 18.544 298.6 19.68 300.488 21.952C302.152 23.936 302.984 26.656 302.984 30.112V30.592H287.432C287.432 32 287.768 33.168 288.44 34.096C289.4 35.408 290.792 36.064 292.616 36.064C294.792 36.064 296.408 35.152 297.464 33.328ZM287.624 26.848H297.464C297.24 25.504 296.648 24.48 295.688 23.776C294.76 23.04 293.704 22.672 292.52 22.672C291.368 22.672 290.312 23.04 289.352 23.776C288.424 24.512 287.848 25.536 287.624 26.848ZM309.438 19.216H326.718V35.008H329.79V46.048H324.51V40H310.206V46.048H304.926V35.008C306.558 34.912 307.79 34.032 308.622 32.368C309.166 31.184 309.438 29.408 309.438 27.04V19.216ZM320.862 35.008V24.208H314.718V28.816C314.718 31.632 313.95 33.696 312.414 35.008H320.862Z" fill="white"/>
</g>
<defs>
<clipPath id="clip0_83_82">
<rect width="415" height="48" fill="white"/>
</clipPath>
</defs>
</svg>
