<svg width="327" height="44" viewBox="0 0 327 44" fill="none" xmlns="http://www.w3.org/2000/svg">
<path d="M0.648 33V0.983997H6.888V27.624H19.56V0.983997H25.8V27.624H29.64V40.2H23.88V33H0.648ZM32.9246 12.216H38.7806V25.032L48.3806 12.216H54.2366V33H48.3806V20.184L38.7806 33H32.9246V12.216ZM70.632 43.992V33.288H70.152C67.208 33.288 64.776 32.6 62.856 31.224C60.104 29.304 58.728 26.424 58.728 22.584C58.728 18.808 60.104 15.928 62.856 13.944C64.776 12.6 67.208 11.928 70.152 11.928H70.632V0.983997H76.488V11.928H76.968C79.912 11.928 82.344 12.6 84.264 13.944C87.016 15.928 88.392 18.808 88.392 22.584C88.392 26.424 87.016 29.304 84.264 31.224C82.344 32.6 79.912 33.288 76.968 33.288H76.488V43.992H70.632ZM70.632 28.104V17.112C69.192 17.048 67.96 17.368 66.936 18.072C65.496 19.064 64.776 20.568 64.776 22.584C64.776 24.664 65.48 26.168 66.888 27.096C67.848 27.768 69.096 28.104 70.632 28.104ZM76.488 17.112V28.104C78.024 28.104 79.272 27.768 80.232 27.096C81.64 26.168 82.344 24.664 82.344 22.584C82.344 20.568 81.624 19.064 80.184 18.072C79.16 17.368 77.928 17.048 76.488 17.112ZM98.7806 30.312V43.992H92.9246V12.216H98.7806V14.904C100.349 12.664 102.605 11.544 105.549 11.544C108.429 11.544 110.797 12.472 112.653 14.328C114.733 16.408 115.773 19.16 115.773 22.584C115.773 26.104 114.685 28.904 112.509 30.984C110.589 32.776 108.237 33.672 105.453 33.672C102.669 33.672 100.445 32.552 98.7806 30.312ZM103.965 16.728C102.461 16.728 101.197 17.192 100.173 18.12C98.8606 19.24 98.2046 20.728 98.2046 22.584C98.2046 24.472 98.8446 25.976 100.125 27.096C101.181 28.024 102.461 28.488 103.965 28.488C105.533 28.488 106.845 27.992 107.901 27C109.117 25.88 109.725 24.408 109.725 22.584C109.725 20.792 109.133 19.336 107.949 18.216C106.861 17.224 105.533 16.728 103.965 16.728ZM122.748 14.472C124.86 12.52 127.66 11.544 131.148 11.544C134.636 11.544 137.436 12.52 139.548 14.472C141.884 16.584 143.052 19.304 143.052 22.632C143.052 25.928 141.884 28.632 139.548 30.744C137.436 32.696 134.636 33.672 131.148 33.672C127.66 33.672 124.86 32.696 122.748 30.744C120.412 28.632 119.244 25.928 119.244 22.632C119.244 19.304 120.412 16.584 122.748 14.472ZM126.972 26.76C128.092 27.912 129.484 28.488 131.148 28.488C132.812 28.488 134.204 27.912 135.324 26.76C136.444 25.608 137.004 24.232 137.004 22.632C137.004 21 136.444 19.608 135.324 18.456C134.204 17.304 132.812 16.728 131.148 16.728C129.484 16.728 128.092 17.304 126.972 18.456C125.852 19.608 125.292 21 125.292 22.632C125.292 24.232 125.852 25.608 126.972 26.76ZM147.581 12.216H156.749C158.957 12.216 160.605 12.632 161.693 13.464C163.037 14.488 163.709 15.848 163.709 17.544C163.709 18.44 163.453 19.288 162.941 20.088C162.461 20.856 161.757 21.432 160.829 21.816C161.853 22.008 162.765 22.456 163.565 23.16C164.621 24.12 165.149 25.416 165.149 27.048C165.149 29 164.413 30.536 162.941 31.656C161.725 32.552 160.173 33 158.285 33H147.581V12.216ZM153.437 20.472H156.125C156.733 20.472 157.245 20.344 157.661 20.088C158.173 19.768 158.429 19.288 158.429 18.648C158.429 17.976 158.205 17.48 157.757 17.16C157.437 16.936 156.861 16.824 156.029 16.824H153.437V20.472ZM153.437 28.392H156.173C157.165 28.392 157.885 28.216 158.333 27.864C158.845 27.48 159.101 26.92 159.101 26.184C159.101 25.512 158.845 25.016 158.333 24.696C157.885 24.376 157.213 24.216 156.317 24.216H153.437V28.392ZM171.92 14.472C174.032 12.52 176.832 11.544 180.32 11.544C183.808 11.544 186.608 12.52 188.72 14.472C191.056 16.584 192.224 19.304 192.224 22.632C192.224 25.928 191.056 28.632 188.72 30.744C186.608 32.696 183.808 33.672 180.32 33.672C176.832 33.672 174.032 32.696 171.92 30.744C169.584 28.632 168.416 25.928 168.416 22.632C168.416 19.304 169.584 16.584 171.92 14.472ZM176.144 26.76C177.264 27.912 178.656 28.488 180.32 28.488C181.984 28.488 183.376 27.912 184.496 26.76C185.616 25.608 186.176 24.232 186.176 22.632C186.176 21 185.616 19.608 184.496 18.456C183.376 17.304 181.984 16.728 180.32 16.728C178.656 16.728 177.264 17.304 176.144 18.456C175.024 19.608 174.464 21 174.464 22.632C174.464 24.232 175.024 25.608 176.144 26.76ZM196.753 12.216H202.609V25.032L212.209 12.216H218.065V33H212.209V20.184L202.609 33H196.753V12.216ZM211.441 1.8L215.281 3.624C214.641 5.416 213.569 6.696 212.065 7.464C210.561 8.2 209.009 8.568 207.409 8.568C205.809 8.568 204.257 8.2 202.753 7.464C201.249 6.696 200.177 5.416 199.537 3.624L203.377 1.8C203.569 2.664 204.033 3.384 204.769 3.96C205.537 4.536 206.417 4.824 207.409 4.824C208.337 4.824 209.185 4.568 209.953 4.056C210.721 3.544 211.217 2.792 211.441 1.8ZM250.463 12.792V18.552C249.151 17.336 247.551 16.728 245.663 16.728C243.807 16.728 242.367 17.304 241.343 18.456C240.319 19.576 239.807 20.952 239.807 22.584C239.807 24.28 240.367 25.688 241.487 26.808C242.639 27.928 244.095 28.488 245.855 28.488C247.583 28.488 249.119 27.88 250.463 26.664V32.376C248.735 33.24 246.943 33.672 245.087 33.672C241.855 33.672 239.183 32.664 237.071 30.648C234.863 28.568 233.759 25.912 233.759 22.68C233.759 19.16 234.959 16.344 237.359 14.232C239.375 12.44 241.871 11.544 244.847 11.544C246.863 11.544 248.735 11.96 250.463 12.792ZM273.872 12.216V33H268.016V17.208H262.352V24.84C262.352 27.528 261.696 29.576 260.384 30.984C259.072 32.456 257.2 33.192 254.768 33.192C254.128 33.192 253.552 33.128 253.04 33V28.008C253.424 28.072 253.728 28.104 253.952 28.104C255.008 28.104 255.808 27.768 256.352 27.096C256.832 26.52 257.072 25.64 257.072 24.456V12.216H273.872ZM294.464 26.328L299.84 27.192C299.616 27.768 299.312 28.344 298.928 28.92C298.576 29.464 298.016 30.152 297.248 30.984C296.48 31.784 295.44 32.44 294.128 32.952C292.816 33.432 291.312 33.672 289.616 33.672C286.352 33.672 283.696 32.696 281.648 30.744C279.472 28.696 278.384 25.992 278.384 22.632C278.384 19.304 279.44 16.584 281.552 14.472C283.536 12.52 286.144 11.544 289.376 11.544C292.896 11.544 295.6 12.68 297.488 14.952C299.152 16.936 299.984 19.656 299.984 23.112V23.592H284.432C284.432 25 284.768 26.168 285.44 27.096C286.4 28.408 287.792 29.064 289.616 29.064C291.792 29.064 293.408 28.152 294.464 26.328ZM284.624 19.848H294.464C294.24 18.504 293.648 17.48 292.688 16.776C291.76 16.04 290.704 15.672 289.52 15.672C288.368 15.672 287.312 16.04 286.352 16.776C285.424 17.512 284.848 18.536 284.624 19.848ZM306.438 12.216H323.718V28.008H326.79V39.048H321.51V33H307.206V39.048H301.926V28.008C303.558 27.912 304.79 27.032 305.622 25.368C306.166 24.184 306.438 22.408 306.438 20.04V12.216ZM317.862 28.008V17.208H311.718V21.816C311.718 24.632 310.95 26.696 309.414 28.008H317.862Z" fill="#171B23"/>
</svg>
